<?xml version="1.0" encoding="UTF-8"?>
<svg xmlns="http://www.w3.org/2000/svg" width="20" height="20" viewBox="0 0 16 16" fill="none">
    <path
            stroke="#fff"
            stroke-linecap="round"
            stroke-linejoin="round"
            d="M8.19 3.204h.218a3.95 3.95 0 0 0-1.294 2.421 3.878 3.878 0 0 0 .616 2.657 4.142 4.142 0 0 0 2.241 1.662 4.315 4.315 0 0 0 2.829-.102 4.833 4.833 0 0 1-1.64 2.016 5.166 5.166 0 0 1-5.106.48 4.942 4.942 0 0 1-2.014-1.673 4.677 4.677 0 0 1-.834-2.43 4.65 4.65 0 0 1 .584-2.498 4.886 4.886 0 0 1 1.835-1.854A5.142 5.142 0 0 1 8.19 3.2v.004Z"
    />
    <path
            stroke="#fff"
            stroke-linecap="round"
            stroke-linejoin="round"
            stroke-width="0.5"
            d="M10.8 3.2A1.2 1.2 0 0 0 12 4.4a1.2 1.2 0 0 0-1.2 1.2 1.2 1.2 0 0 0-1.2-1.2 1.2 1.2 0 0 0 1.2-1.2ZM12.4 7.2V8m-.4-.4h.8"
    />
</svg>