<svg xmlns="http://www.w3.org/2000/svg" xmlns:xlink="http://www.w3.org/1999/xlink" viewBox="0 0 400 248.6"><defs><radialGradient id="A" cx="454.77" cy="374.61" r="4.99" gradientTransform="matrix(0, -0.8, 0.77, 0, 110.54, 837.02)" gradientUnits="userSpaceOnUse"><stop offset="0" stop-color="#232b58"/><stop offset="1" stop-color="#ffb133"/></radialGradient><linearGradient id="B" x1="322.06" y1="274.74" x2="531.8" y2="274.74" gradientTransform="translate(88.7 963.7) rotate(-90)" xlink:href="#A"/><linearGradient id="C" x1="322.08" y1="313.47" x2="491.91" y2="313.47" gradientTransform="translate(88.7 963.7) rotate(-90)" xlink:href="#A"/><radialGradient id="D" cx="243.43" cy="393.88" r="8.25" gradientTransform="matrix(0, -0.8, 0.77, 0, 109.65, 836.25)" xlink:href="#A"/><linearGradient id="E" x1="360.9" y1="324.86" x2="446.35" y2="324.86" gradientTransform="translate(88.7 963.7) rotate(-90)" xlink:href="#A"/><radialGradient id="F" cx="339.45" cy="597.7" xlink:href="#A"/><radialGradient id="G" cx="339.81" cy="598.11" gradientTransform="matrix(0, -0.8, 0.77, 0, 109.65, 836.25)" xlink:href="#A"/><radialGradient id="H" cx="400.21" cy="650.86" r="1.05" gradientTransform="matrix(0, -0.8, 0.77, 0, 109.65, 836.25)" xlink:href="#A"/><radialGradient id="I" cx="400.21" cy="534.92" r="1.05" gradientTransform="matrix(0, -0.8, 0.77, 0, 109.65, 836.25)" xlink:href="#A"/><radialGradient id="J" cx="342.22" cy="574.29" r=".99" gradientTransform="matrix(0, -0.8, 0.77, 0, 109.65, 836.25)" xlink:href="#A"/><linearGradient id="K" x1="600.48" y1="602.8" x2="600.48" y2="393.06" gradientUnits="userSpaceOnUse"><stop offset="0" stop-color="#ffb133"/><stop offset="1" stop-color="#232b58"/></linearGradient><linearGradient id="L" x1="550.36" y1="517.35" x2="550.36" y2="431.9" xlink:href="#K"/><linearGradient id="M" x1="561.75" y1="562.92" x2="561.75" y2="393.08" xlink:href="#K"/><radialGradient id="N" cx="551.01" cy="579" r="8.25" gradientTransform="matrix(0, -0.8, 0.77, 0, 109.65, 836.25)" xlink:href="#A"/></defs><path d="M391.1 471.8a77.4 77.4 0 0 1 10.8-1h-1.4a42.3 42.3 0 0 0-9.4 1z" transform="translate(-282 -393.1)" fill="url(#A)"/><path d="M118.5 0A115.1 115.1 0 0 1 200 34c2.7 2.7 5.3 5.5 7.7 8.4l3.2 4a128.1 128.1 0 0 1 26.1 75.7v3.4a87.8 87.8 0 0 0 9.5 38.7 83.8 83.8 0 0 0 35 36.2 77.5 77.5 0 0 0 37 9.3c44.3 0 80.4-37 81.5-83.2-1.1 67.6-53.8 122.1-118.5 122.1-31.6 0-60.3-13-81.5-34.1a100.9 100.9 0 0 1-7.7-8.3l-3.2-4a128.1 128.1 0 0 1-26.1-75.7v-3.4a87.8 87.8 0 0 0-9.5-38.7 83.3 83.3 0 0 0-35-36.2 77.6 77.6 0 0 0-37-9.4C37.2 38.8 1.1 75.9 0 122.1 1.1 54.5 53.8 0 118.5 0z" fill="#ffb133"/><g transform="translate(-282 -393.1)"><path d="M363.5 431.9a77.6 77.6 0 0 1 37 9.4 83.3 83.3 0 0 1 35 36.2 87.8 87.8 0 0 1 9.5 38.7c-.6-24.7-19.6-44.6-43.1-45.4h-1.4a42.3 42.3 0 0 0-9.4 1 79.7 79.7 0 0 0-27.8 10.3c-24.4 14.8-40.9 42.4-40.9 74.1a88.9 88.9 0 0 0 9.4 40c13.5 26.6 39.9 44.8 70.5 45.5h-1.8c-64.7 0-117.4-54.5-118.5-122.1v-4.4c1.1-46.2 37.2-83.3 81.5-83.3z" fill="url(#B)"/><path d="M391.1 471.8c-20 4.5-35 23.2-35 45.6v1.2c.4 32.7 18.4 61 44.4 74.9a77.6 77.6 0 0 0 37.1 9.3 78.6 78.6 0 0 0 33.5-7.5l3.2 4a100.9 100.9 0 0 0 7.7 8.3 115.6 115.6 0 0 1-61.9 32.4h-.1a115.4 115.4 0 0 1-17.7 1.7c-30.6-.7-57-18.9-70.5-45.5a88.9 88.9 0 0 1-9.4-40c0-31.7 16.5-59.3 40.9-74.1a79.7 79.7 0 0 1 27.8-10.3z" fill="url(#C)"/><path d="M402.3,641.7A115.4,115.4,0,0,0,420,640a77.8,77.8,0,0,1-16.1,1.7Z" fill="url(#D)"/><path d="M445,517.4v2.2a128.1,128.1,0,0,0,26.1,75.7,78.6,78.6,0,0,1-33.5,7.5,77.6,77.6,0,0,1-37.1-9.3c-26-13.9-44-42.2-44.4-74.9.6,25.2,20.3,45.4,44.4,45.4s43.8-20.2,44.5-45.4Z" fill="url(#E)"/><path d="M562.1 564a48.8 48.8 0 0 0 10.8-1 96.3 96.3 0 0 1-10.8 1z" fill="url(#F)"/><path d="M572.9 563a48.8 48.8 0 0 1-10.8 1 96.3 96.3 0 0 0 10.8-1z" fill="url(#G)"/><path d="M607.8 513.8a19.3 19.3 0 0 1 .1 2.4 19.3 19.3 0 0 0-.1-2.4z" fill="url(#H)"/><path d="M519.2 513.8l-.2 2.4.2-2.4z" fill="url(#I)"/><path d="M562.1 564a96.3 96.3 0 0 0 10.8-1 48.8 48.8 0 0 1-10.8 1z" fill="url(#G)"/><path d="M550.3,561.9l-2.1-.7Z" fill="url(#J)"/><path d="M562.1 564a96.3 96.3 0 0 0 10.8-1 48.8 48.8 0 0 1-10.8 1z" fill="url(#G)"/><path d="M550.3,561.9l-2.1-.7Z" fill="url(#J)"/><path d="M607.9 516.2a19.3 19.3 0 0 0-.1-2.4 19.3 19.3 0 0 1 .1 2.4z" fill="url(#H)"/><path d="M519 516.2l.2-2.4-.2 2.4z" fill="url(#I)"/><path d="M563.5,393.1c64.7,0,117.4,54.5,118.5,122.1v4.4c-1.1,46.2-37.2,83.2-81.5,83.2a77.5,77.5,0,0,1-37-9.3,83.8,83.8,0,0,1-35-36.2,87.8,87.8,0,0,1-9.5-38.7,53.8,53.8,0,0,0,.7,6.9c.1.4.1.7.2,1.1a50.3,50.3,0,0,0,3.9,11.9,46.3,46.3,0,0,0,20.5,21,43.6,43.6,0,0,0,28.6,3.5,79.7,79.7,0,0,0,27.8-10.3c24.4-14.8,40.9-42.4,40.9-74.1a88.6,88.6,0,0,0-9.4-40c-13.5-26.6-39.9-44.8-70.5-45.5Z" fill="url(#K)"/><path d="M526.4 431.9a77.7 77.7 0 0 1 37.1 9.4c26 13.9 44 42.2 44.4 74.9a19.3 19.3 0 0 0-.1-2.4 47.9 47.9 0 0 0-4.3-16.6 10.4 10.4 0 0 0-.4-1l-.6-1.1a45.1 45.1 0 0 0-26.3-22.4 42.7 42.7 0 0 0-36.1 5.1c-12.9 8.3-21.2 23.7-21.1 39.6v-2.2a128.1 128.1 0 0 0-26.1-75.7 77.3 77.3 0 0 1 33.5-7.6z" fill="url(#L)"/><path d="M607.8 513.8a19.3 19.3 0 0 1 .1 2.4 19.3 19.3 0 0 0-.1-2.4z" fill="url(#H)"/><path d="M519.2 513.8l-.2 2.4.2-2.4z" fill="url(#I)"/><path d="M561.7 393.1c30.6.7 57 18.9 70.5 45.5a88.6 88.6 0 0 1 9.4 40c0 31.7-16.5 59.3-40.9 74.1a79.7 79.7 0 0 1-27.8 10.3c20-4.6 35-23.2 35-45.6v-1.2c-.4-32.7-18.4-61-44.4-74.9a77.8 77.8 0 0 0-70.6-1.8l-3.2-4c-2.4-2.9-5-5.7-7.7-8.4a116.2 116.2 0 0 1 61.9-32.3h.1a115.4 115.4 0 0 1 17.7-1.7z" fill="url(#M)"/><path d="M560.1 393.1h1.6a115.4 115.4 0 0 0-17.7 1.7 77.8 77.8 0 0 1 16.1-1.7z" fill="url(#N)"/></g></svg>
